# xmcd
#
# Track frame offsets: 
#        150
#        10687
#        21800
#        35405
#        50705
#        64540
#        77760
#        91812
#        105735
#        121330
#        132847
#        155285
#        170727
#        181412
#        195250
#        205332
#        223815
#        236882
#
# Disc length: 3354 seconds
#
# Revision: 4
# Processed by: cddbd v1.5.2PL0 Copyright (c) Steve Scherf et al.
# Submitted via: ExactAudioCopy v1.3
#
DISCID=f10d1812
DTITLE=Louis Armstrong - All Time Greatest Hits
DYEAR=1994
DGENRE=jazz
TTITLE0=What a Wonderful World
TTITLE1=Hello, Dolly
TTITLE2=Sittin' in the Sun
TTITLE3=Mack the Knife (theme from "Three Penny Opera"
TTITLE4=A Kiss to Build a Dream On
TTITLE5=It Takes Two to Tango
TTITLE6=That Lucky Old Sun (Just Rolls Around Heaven All Day)
TTITLE7=Kiss of Fire
TTITLE8=(When We Are Dancin') I Get Ideas
TTITLE9=Gone Fishin' (duet with Bing Crosby)
TTITLE10=Skokiaan
TTITLE11=La Vie en Rose
TTITLE12=The Dummy Song
TTITLE13=Chloe
TTITLE14=I Still Get Jealous
TTITLE15=When You're Smiling (The Whole World Smiles With You)
TTITLE16=Blueberry Hill
TTITLE17=When It's Sleepy Time Down South
EXTD=
EXTT0=
EXTT1=
EXTT2=
EXTT3=
EXTT4=
EXTT5=
EXTT6=
EXTT7=
EXTT8=
EXTT9=
EXTT10=
EXTT11=
EXTT12=
EXTT13=
EXTT14=
EXTT15=
EXTT16=
EXTT17=
PLAYORDER=
